<svg width="118" height="180" viewBox="0 0 118 180" fill="none" xmlns="http://www.w3.org/2000/svg">
<g clip-path="url(#clip0_1726_48)">
<path d="M9 66.9601L85.5 46.6201C88.38 45.9001 91.62 45.9001 94.5 46.6201L171 66.9601C173.7 67.6801 175.5 70.0201 175.5 72.7201C175.5 75.4201 173.7 77.7601 171 78.4801L140.94 86.4001V117.36C140.94 130.32 108.9 133.92 90 133.92C71.1 133.92 39.06 130.5 39.06 117.54V86.4001L21.96 81.9001V103.68C22.86 104.04 23.58 104.76 23.94 105.84L26.64 117.54C27 119.34 25.74 121.14 23.76 121.14H14.04C12.06 121.14 10.8 119.34 11.16 117.54L13.86 105.84C14.04 104.76 14.76 104.04 15.84 103.68V80.2801L9 78.4801C6.3 77.7601 4.5 75.4201 4.5 72.7201C4.5 70.0201 6.3 67.6801 9 66.9601ZM90 126.18C118.26 126.18 132.12 119.88 133.2 117.54C132.12 115.02 118.26 108.72 90 108.72C61.74 108.72 47.7 115.02 46.8 117.36C47.88 120.06 61.74 126.18 90 126.18Z" fill="#DFE4E8"/>
</g>
<defs>
<clipPath id="clip0_1726_48">
<rect width="118" height="180" fill="white" transform="matrix(-1 0 0 1 118 0)"/>
</clipPath>
</defs>
</svg>
