<svg width="118" height="180" viewBox="0 0 118 180" fill="none" xmlns="http://www.w3.org/2000/svg">
<g clip-path="url('#clip0_1726_54')">
<path d="M153.81 38.7179C152.458 37.0293 150.743 35.6669 148.793 34.732C146.842 33.7972 144.706 33.3138 142.542 33.3179H140.4C140.67 32.0579 140.94 30.8159 141.192 29.7179C141.518 28.2047 141.5 26.6379 141.14 25.1325C140.781 23.6271 140.089 22.2212 139.116 21.018C138.142 19.8149 136.911 18.8449 135.514 18.1794C134.117 17.5138 132.588 17.1696 131.04 17.1719H48.9605C47.4187 17.1692 45.8958 17.5104 44.5025 18.1706C43.1093 18.8308 41.8808 19.7934 40.9066 20.9884C39.9324 22.1833 39.2369 23.5805 38.8708 25.0782C38.5048 26.5758 38.4773 28.1363 38.7905 29.6459C39.0425 30.7799 39.3125 32.0219 39.5825 33.2459H37.4585C35.2898 33.2418 33.1482 33.7276 31.1935 34.667C29.2388 35.6065 27.5216 36.9753 26.1699 38.6713C24.8183 40.3673 23.8672 42.3467 23.3877 44.4617C22.9082 46.5768 22.9125 48.7728 23.4005 50.8859C25.5687 60.4512 30.2268 69.2734 36.903 76.4585C43.5791 83.6435 52.0359 88.9361 61.4165 91.7999C66.8165 99.9179 72.9725 106.344 80.2985 109.44V124.866H65.4665C61.9541 124.875 58.5881 126.274 56.1028 128.756C53.6175 131.237 52.2147 134.602 52.2005 138.114V162.828H127.8V138.114C127.8 136.366 127.456 134.634 126.786 133.019C126.117 131.404 125.135 129.937 123.898 128.702C122.661 127.466 121.192 126.487 119.576 125.819C117.96 125.152 116.229 124.81 114.48 124.812H99.7025V109.386C107.028 106.29 113.274 99.8639 118.584 91.7459C127.957 88.885 136.409 83.6001 143.084 76.4254C149.759 69.2506 154.422 60.4405 156.6 50.8859C157.086 48.7788 157.088 46.5889 156.604 44.4812C156.121 42.3735 155.166 40.4029 153.81 38.7179ZM33.1385 48.5999C32.9927 47.952 32.9945 47.2797 33.1438 46.6326C33.2931 45.9855 33.586 45.3803 34.0008 44.8617C34.4156 44.3432 34.9418 43.9246 35.5403 43.6369C36.1389 43.3493 36.7944 43.1999 37.4585 43.1999H41.9765C44.9001 54.9086 48.808 66.3493 53.6585 77.3999C48.4972 74.2024 44.0245 70.0089 40.5013 65.0641C36.9782 60.1194 34.4752 54.5224 33.1385 48.5999ZM146.862 48.5999C145.526 54.5224 143.023 60.1194 139.5 65.0641C135.976 70.0089 131.504 74.2024 126.342 77.3999C131.193 66.3493 135.101 54.9086 138.024 43.1999H142.542C143.207 43.1999 143.862 43.3493 144.461 43.6369C145.059 43.9246 145.585 44.3432 146 44.8617C146.415 45.3803 146.708 45.9855 146.857 46.6326C147.006 47.2797 147.008 47.952 146.862 48.5999Z" fill="#DFE4E8"></path>
</g>
<defs>
<clipPath id="clip0_1726_54">
<rect width="118" height="180" fill="white"></rect>
</clipPath>
</defs>
</svg>
