<svg width="24" height="24" viewBox="0 0 24 24" fill="none" xmlns="http://www.w3.org/2000/svg">
<path d="M13.5957 18.655C13.4552 18.5144 13.3763 18.3238 13.3763 18.125C13.3763 17.9263 13.4552 17.7356 13.5957 17.595L18.5657 12.625L4.12566 12.625C3.92675 12.625 3.73598 12.546 3.59533 12.4053C3.45468 12.2647 3.37566 12.0739 3.37566 11.875C3.37566 11.6761 3.45468 11.4853 3.59533 11.3447C3.73598 11.204 3.92675 11.125 4.12566 11.125L18.5657 11.125L13.5957 6.15502C13.4969 6.06335 13.4248 5.94675 13.3868 5.8175C13.3487 5.68825 13.3463 5.55114 13.3797 5.42061C13.413 5.29009 13.481 5.17098 13.5764 5.07584C13.6718 4.98071 13.791 4.91305 13.9217 4.88002C14.052 4.8466 14.189 4.84893 14.3182 4.88677C14.4473 4.9246 14.5639 4.99654 14.6557 5.09502L20.9057 11.345C21.0461 11.4856 21.125 11.6763 21.125 11.875C21.125 12.0738 21.0461 12.2644 20.9057 12.405L14.6557 18.655C14.515 18.7955 14.3244 18.8744 14.1257 18.8744C13.9269 18.8744 13.7363 18.7955 13.5957 18.655Z" fill="white"/>
</svg>
