<svg width="32" height="32" viewBox="0 0 32 32" fill="none" xmlns="http://www.w3.org/2000/svg">
<path d="M4 9.33317C4 8.62593 4.28095 7.94765 4.78105 7.44755C5.28115 6.94746 5.95942 6.6665 6.66667 6.6665H25.3333C26.0406 6.6665 26.7189 6.94746 27.219 7.44755C27.719 7.94765 28 8.62593 28 9.33317V22.6665C28 23.3737 27.719 24.052 27.219 24.5521C26.7189 25.0522 26.0406 25.3332 25.3333 25.3332H6.66667C5.95942 25.3332 5.28115 25.0522 4.78105 24.5521C4.28095 24.052 4 23.3737 4 22.6665V9.33317Z" stroke="#FF7019" stroke-width="2" stroke-linecap="round" stroke-linejoin="round"></path>
<path d="M4 9.33301L16 17.333L28 9.33301" stroke="#FF7019" stroke-width="2" stroke-linecap="round" stroke-linejoin="round"></path>
</svg>
