<svg width="195" height="52" viewBox="0 0 195 52" fill="none" xmlns="http://www.w3.org/2000/svg">
<path d="M5.916 17.839H14.703V21H2.581V0.699999H14.384V3.832H5.916V9.11H13.63V12.184H5.916V17.839ZM21.1603 5.34H31.8033V21H28.6423V8.124H23.7993L23.1033 15.055C22.8906 17.259 22.3203 18.8153 21.3923 19.724C20.4836 20.6327 19.1013 21.087 17.2453 21.087H16.6943V18.129H17.4483C18.9756 18.129 19.8359 17.172 20.0293 15.258L21.1603 5.34ZM47.8727 5.34H49.6707V21H46.5967V11.053L38.2447 21H36.3887V5.34H39.4917V15.2L47.8727 5.34ZM63.0168 12.677C64.3894 13.489 65.0758 14.7553 65.0758 16.476C65.0758 17.926 64.4958 19.1053 63.3358 20.014C62.1758 20.9227 60.6871 21.377 58.8698 21.377C57.1104 21.377 55.6701 20.9227 54.5488 20.014C53.4468 19.086 52.8474 17.8487 52.7508 16.302H55.6798C55.7958 16.9787 56.1341 17.5103 56.6948 17.897C57.2554 18.2837 57.9804 18.477 58.8698 18.477C59.7784 18.477 60.5131 18.274 61.0738 17.868C61.6344 17.4427 61.9148 16.9013 61.9148 16.244C61.9148 15.606 61.6634 15.084 61.1608 14.678C60.6774 14.272 60.0298 14.069 59.2178 14.069H57.1878V11.575H59.2178C59.9524 11.575 60.5324 11.4107 60.9578 11.082C61.3831 10.734 61.5958 10.27 61.5958 9.69C61.5958 9.07133 61.3444 8.57833 60.8418 8.211C60.3391 7.84367 59.6721 7.66 58.8408 7.66C58.0868 7.66 57.4584 7.834 56.9558 8.182C56.4724 8.53 56.1824 9.01333 56.0858 9.632H53.1568C53.2341 8.24 53.8044 7.11867 54.8678 6.268C55.9504 5.398 57.3038 4.963 58.9278 4.963C60.5904 4.963 61.9534 5.38833 63.0168 6.239C64.0994 7.08967 64.6408 8.16267 64.6408 9.458C64.6408 10.85 64.0994 11.923 63.0168 12.677ZM81.6969 5.34H84.1909V21H81.5809L81.2619 19.086C79.7539 20.6133 77.8689 21.377 75.6069 21.377C73.2675 21.377 71.3149 20.594 69.7489 19.028C68.2022 17.462 67.4289 15.5093 67.4289 13.17C67.4289 10.8113 68.2022 8.85867 69.7489 7.312C71.3149 5.746 73.2675 4.963 75.6069 4.963C77.9075 4.963 79.8119 5.73633 81.3199 7.283L81.6969 5.34ZM72.1559 16.853C73.1419 17.8197 74.3695 18.303 75.8389 18.303C77.3275 18.303 78.5455 17.8197 79.4929 16.853C80.4595 15.867 80.9429 14.6393 80.9429 13.17C80.9429 11.6813 80.4595 10.4537 79.4929 9.487C78.5455 8.52033 77.3275 8.037 75.8389 8.037C74.8722 8.037 73.9925 8.25933 73.1999 8.704C72.4265 9.14867 71.8175 9.76733 71.3729 10.56C70.9282 11.3333 70.7059 12.2033 70.7059 13.17C70.7059 14.6393 71.1892 15.867 72.1559 16.853ZM99.3952 12.822C99.7626 12.9767 100.091 13.1797 100.381 13.431C100.691 13.663 100.952 13.9433 101.164 14.272C101.377 14.5813 101.541 14.9293 101.657 15.316C101.773 15.7027 101.831 16.099 101.831 16.505C101.831 17.781 101.367 18.854 100.439 19.724C99.5112 20.5747 98.3512 21 96.9592 21H88.7812V5.34H96.8432C98.1579 5.34 99.2309 5.717 100.062 6.471C100.913 7.20567 101.338 8.16267 101.338 9.342C101.338 10.0767 101.164 10.7533 100.816 11.372C100.468 11.9907 99.9946 12.474 99.3952 12.822ZM98.1482 9.864C98.1482 9.32267 97.9646 8.88767 97.5972 8.559C97.2492 8.23033 96.7852 8.066 96.2052 8.066H91.9422V11.662H96.2052C96.7852 11.662 97.2492 11.4977 97.5972 11.169C97.9646 10.8403 98.1482 10.4053 98.1482 9.864ZM96.3792 18.187C97.0172 18.187 97.5296 18.0033 97.9162 17.636C98.3222 17.2687 98.5252 16.8047 98.5252 16.244C98.5252 15.664 98.3222 15.1903 97.9162 14.823C97.5102 14.4557 96.9882 14.272 96.3502 14.272H91.9422V18.187H96.3792ZM120.339 13.199C120.339 13.489 120.32 13.8467 120.281 14.272H107.579C107.772 15.5287 108.294 16.5243 109.145 17.259C110.015 17.9937 111.088 18.361 112.364 18.361C112.983 18.361 113.563 18.274 114.104 18.1C114.645 17.9067 115.119 17.6457 115.525 17.317C115.95 16.969 116.298 16.5533 116.569 16.07H119.962C119.343 17.7327 118.357 19.0377 117.004 19.985C115.651 20.913 114.104 21.377 112.364 21.377C110.063 21.377 108.14 20.594 106.593 19.028C105.066 17.462 104.302 15.5093 104.302 13.17C104.302 10.8307 105.066 8.878 106.593 7.312C108.14 5.746 110.063 4.963 112.364 4.963C113.93 4.963 115.322 5.34 116.54 6.094C117.758 6.82867 118.696 7.82433 119.353 9.081C120.01 10.3183 120.339 11.691 120.339 13.199ZM112.364 7.863C111.165 7.863 110.141 8.20133 109.29 8.878C108.459 9.55467 107.908 10.4827 107.637 11.662H117.12C116.927 10.8693 116.608 10.1927 116.163 9.632C115.718 9.052 115.167 8.617 114.51 8.327C113.872 8.01767 113.157 7.863 112.364 7.863ZM135.715 5.34V8.24H130.205V21H127.073V8.24H121.534V5.34H135.715ZM151.195 5.34H153.689V21H151.079L150.76 19.086C149.252 20.6133 147.367 21.377 145.105 21.377C142.766 21.377 140.813 20.594 139.247 19.028C137.7 17.462 136.927 15.5093 136.927 13.17C136.927 10.8113 137.7 8.85867 139.247 7.312C140.813 5.746 142.766 4.963 145.105 4.963C147.406 4.963 149.31 5.73633 150.818 7.283L151.195 5.34ZM141.654 16.853C142.64 17.8197 143.868 18.303 145.337 18.303C146.826 18.303 148.044 17.8197 148.991 16.853C149.958 15.867 150.441 14.6393 150.441 13.17C150.441 11.6813 149.958 10.4537 148.991 9.487C148.044 8.52033 146.826 8.037 145.337 8.037C144.37 8.037 143.491 8.25933 142.698 8.704C141.925 9.14867 141.316 9.76733 140.871 10.56C140.426 11.3333 140.204 12.2033 140.204 13.17C140.204 14.6393 140.687 15.867 141.654 16.853Z" fill="black"/>
<path d="M81.645 46L75.294 37.097H72.916V46H69.581V25.7H72.916V33.994H75.265L81.065 25.7H85.154L78.223 35.502L85.792 46H81.645ZM99.4664 30.34H101.264V46H98.1904V36.053L89.8384 46H87.9824V30.34H91.0854V40.2L99.4664 30.34ZM114.263 29.963C115.809 29.963 117.201 30.3207 118.439 31.036C119.676 31.732 120.643 32.7083 121.339 33.965C122.035 35.2217 122.383 36.6233 122.383 38.17C122.383 40.5287 121.609 42.491 120.063 44.057C118.535 45.6037 116.602 46.377 114.263 46.377C112.252 46.377 110.522 45.7487 109.072 44.492V51.626H105.853V30.34H108.028L108.637 32.254C110.145 30.7267 112.02 29.963 114.263 29.963ZM110.348 41.853C111.314 42.8197 112.532 43.303 114.002 43.303C115.49 43.303 116.718 42.8197 117.685 41.853C118.651 40.867 119.135 39.6393 119.135 38.17C119.135 36.7007 118.651 35.4827 117.685 34.516C116.718 33.53 115.5 33.037 114.031 33.037C113.064 33.037 112.184 33.2593 111.392 33.704C110.599 34.1487 109.98 34.7673 109.536 35.56C109.11 36.3333 108.898 37.2033 108.898 38.17C108.898 39.6393 109.381 40.867 110.348 41.853ZM140.724 38.199C140.724 38.489 140.704 38.8467 140.666 39.272H127.964C128.157 40.5287 128.679 41.5243 129.53 42.259C130.4 42.9937 131.473 43.361 132.749 43.361C133.367 43.361 133.947 43.274 134.489 43.1C135.03 42.9067 135.504 42.6457 135.91 42.317C136.335 41.969 136.683 41.5533 136.954 41.07H140.347C139.728 42.7327 138.742 44.0377 137.389 44.985C136.035 45.913 134.489 46.377 132.749 46.377C130.448 46.377 128.524 45.594 126.978 44.028C125.45 42.462 124.687 40.5093 124.687 38.17C124.687 35.8307 125.45 33.878 126.978 32.312C128.524 30.746 130.448 29.963 132.749 29.963C134.315 29.963 135.707 30.34 136.925 31.094C138.143 31.8287 139.08 32.8243 139.738 34.081C140.395 35.3183 140.724 36.691 140.724 38.199ZM132.749 32.863C131.55 32.863 130.525 33.2013 129.675 33.878C128.843 34.5547 128.292 35.4827 128.022 36.662H137.505C137.311 35.8693 136.992 35.1927 136.548 34.632C136.103 34.052 135.552 33.617 134.895 33.327C134.257 33.0177 133.541 32.863 132.749 32.863ZM154.582 30.34H157.743V46H154.582V39.446H147.332V46H144.142V30.34H147.332V36.488H154.582V30.34ZM172.183 46L167.485 39.33H165.542V46H162.323V30.34H165.542V36.401H167.514L171.777 30.34H175.576L170.269 37.851L176.156 46H172.183ZM191.066 44.057C189.481 45.6037 187.489 46.377 185.092 46.377C182.695 46.377 180.694 45.6037 179.089 44.057C177.504 42.491 176.711 40.5287 176.711 38.17C176.711 36.6233 177.069 35.2217 177.784 33.965C178.519 32.7083 179.524 31.732 180.8 31.036C182.095 30.3207 183.526 29.963 185.092 29.963C186.658 29.963 188.079 30.3207 189.355 31.036C190.65 31.732 191.656 32.7083 192.371 33.965C193.106 35.2217 193.473 36.6233 193.473 38.17C193.473 40.5287 192.671 42.491 191.066 44.057ZM185.092 43.303C186.078 43.303 186.958 43.0903 187.731 42.665C188.504 42.2203 189.104 41.6113 189.529 40.838C189.974 40.0453 190.196 39.156 190.196 38.17C190.196 36.6813 189.713 35.4537 188.746 34.487C187.799 33.5203 186.581 33.037 185.092 33.037C183.603 33.037 182.376 33.5203 181.409 34.487C180.462 35.4537 179.988 36.6813 179.988 38.17C179.988 39.6587 180.462 40.8863 181.409 41.853C182.376 42.8197 183.603 43.303 185.092 43.303Z" fill="black"/>
</svg>
