<svg width="70" height="70" viewBox="0 0 70 70" fill="none" xmlns="http://www.w3.org/2000/svg">
<path fill-rule="evenodd" clip-rule="evenodd" d="M4.9407 1.09375H65.0594C66.6349 1.09375 67.9239 2.38273 67.9239 3.95814V11.3237H2.07617V3.95828C2.07617 2.38273 3.36516 1.09375 4.9407 1.09375ZM32.8986 35.483C39.5933 35.483 45.0206 40.9102 45.0206 47.6051C45.0206 50.1866 44.213 52.5793 42.8375 54.5453L46.6205 58.2531L46.7675 58.1016C47.1895 57.6667 47.8909 57.6562 48.3258 58.0783L54.9826 64.538C55.4175 64.96 55.4282 65.6611 55.0061 66.0961L52.6028 68.5731C52.1806 69.0081 51.4795 69.0185 51.0445 68.5964L44.3876 62.1369C43.9526 61.7148 43.9421 61.0135 44.3641 60.5786L44.491 60.4477L40.7825 56.8125C38.6631 58.6292 35.9091 59.727 32.8986 59.727C26.2038 59.727 20.7766 54.2998 20.7766 47.6049C20.7766 40.9102 26.2038 35.483 32.8986 35.483ZM32.8986 38.9007C28.0913 38.9007 24.1943 42.7978 24.1943 47.6051C24.1943 52.4122 28.0913 56.3094 32.8986 56.3094C37.7058 56.3094 41.6029 52.4124 41.6029 47.6051C41.6028 42.7978 37.7058 38.9007 32.8986 38.9007ZM10.0935 46.9573C9.80342 46.9573 9.52522 46.842 9.3201 46.6369C9.11498 46.4318 8.99975 46.1536 8.99975 45.8635C8.99975 45.5735 9.11498 45.2953 9.3201 45.0901C9.52522 44.885 9.80342 44.7698 10.0935 44.7698H13.6509C13.941 44.7698 14.2192 44.885 14.4243 45.0901C14.6294 45.2953 14.7447 45.5735 14.7447 45.8635C14.7447 46.1536 14.6294 46.4318 14.4243 46.6369C14.2192 46.842 13.941 46.9573 13.6509 46.9573H10.0935ZM10.0935 42.1791C9.80342 42.1791 9.52522 42.0639 9.3201 41.8587C9.11498 41.6536 8.99975 41.3754 8.99975 41.0854C8.99975 40.7953 9.11498 40.5171 9.3201 40.312C9.52522 40.1068 9.80342 39.9916 10.0935 39.9916H13.6509C13.941 39.9916 14.2192 40.1068 14.4243 40.312C14.6294 40.5171 14.7447 40.7953 14.7447 41.0854C14.7447 41.3754 14.6294 41.6536 14.4243 41.8587C14.2192 42.0639 13.941 42.1791 13.6509 42.1791H10.0935ZM58.1901 26.8967H60.0221C60.3986 26.8967 60.7057 27.2037 60.7057 27.5803V45.2735C60.7057 45.65 60.3986 45.9571 60.0221 45.9571H58.1901C58.0089 45.9567 57.8352 45.8846 57.7071 45.7564C57.579 45.6283 57.5068 45.4546 57.5065 45.2735V27.5803C57.5068 27.3991 57.579 27.2254 57.7071 27.0973C57.8352 26.9692 58.0089 26.897 58.1901 26.8967ZM51.3078 30.3302C51.1266 30.3306 50.9529 30.4027 50.8248 30.5309C50.6967 30.659 50.6245 30.8326 50.6242 31.0138V45.2735C50.6242 45.65 50.9312 45.9571 51.3078 45.9571H53.1398C53.5163 45.9571 53.8234 45.65 53.8234 45.2735V31.0138C53.8234 30.6373 53.5163 30.3302 53.1398 30.3302H51.3078ZM44.4256 33.7639H46.2577C46.6342 33.7639 46.9412 34.071 46.9412 34.4475V44.8469C47.1188 45.7555 47.2082 46.6792 47.208 47.6051C47.208 49.6629 46.7699 51.6759 45.9288 53.5246H65.0592C66.6346 53.5246 67.9238 52.2356 67.9238 50.66V13.5114H2.07617V50.6602C2.07617 52.2357 3.36516 53.5247 4.9407 53.5247H19.8678C19.0468 51.7207 18.5891 49.7164 18.5891 47.6052C18.5891 47.3881 18.5947 47.1722 18.6042 46.9574H17.8362C17.5461 46.9574 17.2679 46.8422 17.0628 46.6371C16.8576 46.432 16.7424 46.1538 16.7424 45.8637C16.7424 45.5736 16.8576 45.2954 17.0628 45.0903C17.2679 44.8852 17.5461 44.7699 17.8362 44.7699H18.8704C19.0488 43.8834 19.3115 43.0159 19.6549 42.1792H17.8362C17.5461 42.1792 17.2679 42.064 17.0628 41.8589C16.8576 41.6538 16.7424 41.3756 16.7424 41.0855C16.7424 40.7954 16.8576 40.5172 17.0628 40.3121C17.2679 40.107 17.5461 39.9917 17.8362 39.9917H20.7818C23.3147 35.9693 27.7945 33.2957 32.8985 33.2957C37.2331 33.2957 41.118 35.2238 43.742 38.2691V34.4477C43.7424 34.2664 43.8145 34.0927 43.9426 33.9646C44.0707 33.8364 44.2444 33.7643 44.4256 33.7639ZM37.184 23.7006C36.894 23.7006 36.6158 23.5854 36.4106 23.3803C36.2055 23.1751 36.0903 22.8969 36.0903 22.6069C36.0903 22.3168 36.2055 22.0386 36.4106 21.8335C36.6158 21.6283 36.894 21.5131 37.184 21.5131H47.8649C48.155 21.5131 48.4332 21.6283 48.6383 21.8335C48.8434 22.0386 48.9587 22.3168 48.9587 22.6069C48.9587 22.8969 48.8434 23.1751 48.6383 23.3803C48.4332 23.5854 48.155 23.7006 47.8649 23.7006H37.184ZM37.184 19.0775C36.894 19.0775 36.6158 18.9622 36.4106 18.7571C36.2055 18.552 36.0903 18.2738 36.0903 17.9837C36.0903 17.6936 36.2055 17.4154 36.4106 17.2103C36.6158 17.0052 36.894 16.89 37.184 16.89H58.5459C58.836 16.89 59.1142 17.0052 59.3193 17.2103C59.5245 17.4154 59.6397 17.6936 59.6397 17.9837C59.6397 18.2738 59.5245 18.552 59.3193 18.7571C59.1142 18.9622 58.836 19.0775 58.5459 19.0775H37.184ZM18.3035 16.6529V25.8922C18.3031 26.1191 18.3736 26.3404 18.5053 26.5252L23.0749 34.4401C21.9134 34.9402 20.6619 35.1974 19.3973 35.1959C14.259 35.1959 10.0936 31.0305 10.0936 25.8922C10.0935 21.124 13.6807 17.1943 18.3035 16.6529ZM24.9604 33.3499L21.2861 26.986H28.6365C28.332 29.5863 26.9556 31.8592 24.9604 33.3499ZM28.6365 24.7985H20.491V16.6529C24.7549 17.1523 28.1371 20.5346 28.6365 24.7985ZM22.7207 4.53469C21.7961 4.53469 21.0467 5.28418 21.0467 6.20881C21.0467 7.13344 21.7962 7.88293 22.7207 7.88293C23.6453 7.88293 24.3948 7.13344 24.3948 6.20881C24.3947 5.28418 23.6452 4.53469 22.7207 4.53469ZM16.2944 4.53469C15.3699 4.53469 14.6203 5.28418 14.6203 6.20881C14.6203 7.13344 15.3697 7.88293 16.2944 7.88293C17.219 7.88293 17.9685 7.13344 17.9685 6.20881C17.9685 5.28418 17.219 4.53469 16.2944 4.53469ZM9.86805 4.53469C8.94342 4.53469 8.19393 5.28418 8.19393 6.20881C8.19393 7.13344 8.94342 7.88293 9.86805 7.88293C10.7927 7.88293 11.5422 7.13344 11.5422 6.20881C11.5422 5.28418 10.7927 4.53469 9.86805 4.53469Z" fill="white"></path>
</svg>
