<svg width="70" height="70" viewBox="0 0 70 70" fill="none" xmlns="http://www.w3.org/2000/svg">
<path fill-rule="evenodd" clip-rule="evenodd" d="M64.4529 11.108V46.5147H5.54709V11.108H64.4529ZM3.32049 48.7022H66.6796C67.9044 48.7022 68.9062 49.7043 68.9062 50.9288C68.9062 52.1536 67.9044 53.1554 66.6796 53.1554H3.32049C2.09576 53.1556 1.09375 52.1537 1.09375 50.929C1.09375 49.7043 2.09576 48.7022 3.32049 48.7022ZM3.32049 4.46716H66.6796C67.9044 4.46716 68.9062 5.46917 68.9062 6.69376C68.9062 7.91849 67.9044 8.92037 66.6796 8.92037H3.32049C2.09576 8.9205 1.09375 7.91849 1.09375 6.6939C1.09375 5.46917 2.09576 4.46716 3.32049 4.46716ZM45.719 41.8886L43.3649 39.5344L45.719 37.1803C45.8225 37.0791 45.9048 36.9585 45.9613 36.8253C46.0178 36.6921 46.0473 36.549 46.0481 36.4044C46.0489 36.2597 46.021 36.1163 45.966 35.9825C45.911 35.8487 45.83 35.7272 45.7277 35.6249C45.6254 35.5226 45.5039 35.4416 45.3701 35.3866C45.2363 35.3316 45.0929 35.3037 44.9482 35.3045C44.8035 35.3053 44.6605 35.3348 44.5273 35.3913C44.3941 35.4478 44.2735 35.5301 44.1723 35.6336L41.8182 37.9877L39.464 35.6336C39.3629 35.5301 39.2422 35.4478 39.109 35.3913C38.9758 35.3348 38.8328 35.3053 38.6881 35.3045C38.5435 35.3037 38.4001 35.3316 38.2663 35.3866C38.1325 35.4416 38.0109 35.5226 37.9086 35.6249C37.8063 35.7272 37.7253 35.8487 37.6703 35.9825C37.6154 36.1163 37.5875 36.2597 37.5883 36.4044C37.5891 36.549 37.6186 36.6921 37.6751 36.8253C37.7315 36.9585 37.8139 37.0791 37.9173 37.1803L40.2715 39.5344L37.9173 41.8886C37.8139 41.9897 37.7315 42.1104 37.6751 42.2436C37.6186 42.3767 37.5891 42.5198 37.5883 42.6645C37.5875 42.8091 37.6154 42.9525 37.6703 43.0863C37.7253 43.2201 37.8063 43.3417 37.9086 43.444C38.0109 43.5463 38.1325 43.6273 38.2663 43.6823C38.4001 43.7372 38.5435 43.7651 38.6881 43.7643C38.8328 43.7635 38.9758 43.734 39.109 43.6775C39.2422 43.6211 39.3629 43.5387 39.464 43.4353L41.8182 41.0811L44.1723 43.4353C44.2735 43.5387 44.3941 43.6211 44.5273 43.6775C44.6605 43.734 44.8035 43.7635 44.9482 43.7643C45.0929 43.7651 45.2363 43.7372 45.3701 43.6823C45.5039 43.6273 45.6254 43.5463 45.7277 43.444C45.83 43.3417 45.911 43.2201 45.966 43.0863C46.021 42.9525 46.0489 42.8091 46.0481 42.6645C46.0473 42.5198 46.0178 42.3767 45.9613 42.2436C45.9048 42.1104 45.8225 41.9897 45.719 41.8886ZM35.3451 19.5183L32.9909 17.1641L35.3451 14.8099C35.4485 14.7088 35.5308 14.5881 35.5873 14.455C35.6438 14.3218 35.6733 14.1787 35.6741 14.0341C35.6749 13.8894 35.647 13.746 35.592 13.6122C35.5371 13.4784 35.4561 13.3568 35.3538 13.2545C35.2515 13.1522 35.1299 13.0713 34.9961 13.0163C34.8623 12.9613 34.7189 12.9334 34.5743 12.9342C34.4296 12.935 34.2865 12.9645 34.1534 13.021C34.0202 13.0775 33.8995 13.1598 33.7984 13.2632L31.4442 15.6174L29.0901 13.2632C28.9889 13.1598 28.8683 13.0775 28.7351 13.021C28.6019 12.9645 28.4588 12.935 28.3142 12.9342C28.1695 12.9334 28.0261 12.9613 27.8923 13.0163C27.7585 13.0713 27.6369 13.1522 27.5347 13.2545C27.4324 13.3568 27.3514 13.4784 27.2964 13.6122C27.2414 13.746 27.2135 13.8894 27.2143 14.0341C27.2151 14.1787 27.2446 14.3218 27.3011 14.455C27.3576 14.5881 27.4399 14.7088 27.5434 14.8099L29.8975 17.1641L27.5434 19.5183C27.4399 19.6194 27.3576 19.7401 27.3011 19.8732C27.2446 20.0064 27.2151 20.1495 27.2143 20.2941C27.2135 20.4388 27.2414 20.5822 27.2964 20.716C27.3514 20.8498 27.4324 20.9714 27.5347 21.0737C27.6369 21.176 27.7585 21.2569 27.8923 21.3119C28.0261 21.3669 28.1695 21.3948 28.3142 21.394C28.4588 21.3932 28.6019 21.3637 28.7351 21.3072C28.8683 21.2507 28.9889 21.1684 29.0901 21.065L31.4442 18.7108L33.7984 21.065C33.8995 21.1684 34.0202 21.2507 34.1534 21.3072C34.2865 21.3637 34.4296 21.3932 34.5743 21.394C34.7189 21.3948 34.8623 21.3669 34.9961 21.3119C35.1299 21.2569 35.2515 21.176 35.3538 21.0737C35.4561 20.9714 35.5371 20.8498 35.592 20.716C35.647 20.5822 35.6749 20.4388 35.6741 20.2941C35.6733 20.1495 35.6438 20.0064 35.5873 19.8732C35.5308 19.7401 35.4485 19.6194 35.3451 19.5183ZM19.6057 26.7477L17.2516 24.3935L19.6057 22.0394C19.7092 21.9382 19.7915 21.8176 19.848 21.6844C19.9045 21.5512 19.934 21.4081 19.9348 21.2635C19.9356 21.1188 19.9077 20.9754 19.8527 20.8416C19.7977 20.7078 19.7167 20.5862 19.6144 20.4839C19.5122 20.3817 19.3906 20.3007 19.2568 20.2457C19.123 20.1907 18.9796 20.1628 18.8349 20.1636C18.6903 20.1644 18.5472 20.1939 18.414 20.2504C18.2808 20.3069 18.1602 20.3892 18.059 20.4927L15.7049 22.8468L13.3509 20.4928C13.2497 20.3894 13.1291 20.307 12.9959 20.2505C12.8627 20.1941 12.7196 20.1646 12.575 20.1638C12.4303 20.1629 12.2869 20.1908 12.1531 20.2458C12.0193 20.3008 11.8977 20.3818 11.7955 20.4841C11.6932 20.5864 11.6122 20.7079 11.5572 20.8418C11.5022 20.9756 11.4743 21.1189 11.4751 21.2636C11.4759 21.4083 11.5054 21.5513 11.5619 21.6845C11.6184 21.8177 11.7007 21.9383 11.8042 22.0395L14.1583 24.3936L11.8043 26.7477C11.7009 26.8488 11.6185 26.9695 11.562 27.1026C11.5056 27.2358 11.4761 27.3789 11.4753 27.5236C11.4744 27.6682 11.5023 27.8116 11.5573 27.9454C11.6123 28.0792 11.6933 28.2008 11.7956 28.3031C11.8979 28.4054 12.0195 28.4864 12.1533 28.5413C12.2871 28.5963 12.4305 28.6242 12.5751 28.6234C12.7198 28.6226 12.8628 28.5931 12.996 28.5366C13.1292 28.4801 13.2499 28.3978 13.351 28.2944L15.7052 25.9402L18.0593 28.2944C18.1602 28.3988 18.2809 28.4821 18.4144 28.5394C18.5478 28.5968 18.6913 28.6269 18.8366 28.6282C18.9818 28.6294 19.1258 28.6017 19.2602 28.5467C19.3946 28.4917 19.5168 28.4105 19.6194 28.3078C19.7221 28.2051 19.8033 28.083 19.8583 27.9485C19.9133 27.8141 19.941 27.6701 19.9397 27.5249C19.9384 27.3796 19.9082 27.2361 19.8509 27.1027C19.7936 26.9692 19.7102 26.8486 19.6057 26.7477ZM46.4193 55.3431L51.7104 64.5075C51.836 64.7249 51.836 64.9737 51.7104 65.1911C51.5849 65.4084 51.3695 65.5329 51.1185 65.5329H47.2161C46.463 65.5329 45.8166 65.1596 45.4401 64.5075L40.1491 55.3431H46.4193ZM29.851 55.3431L24.56 64.5075C24.1835 65.1596 23.537 65.5329 22.784 65.5329H18.8817C18.6307 65.5329 18.4152 65.4084 18.2897 65.1911C18.1642 64.9737 18.1642 64.7249 18.2897 64.5075L23.5808 55.3431H29.851ZM22.3351 38.39C22.4097 38.7428 22.4492 39.1087 22.4492 39.4837C22.4492 39.8587 22.4097 40.2246 22.3351 40.5775H25.8345C27.4857 40.5775 28.9842 39.9045 30.0695 38.8193C31.1548 37.7338 31.8277 36.2354 31.8277 34.5841V32.3284C31.8277 31.281 32.2554 30.3297 32.9451 29.64C33.6349 28.9502 34.5862 28.5226 35.6336 28.5226H44.0226C43.8856 27.7998 43.8856 27.0578 44.0226 26.3351H35.6336C33.9824 26.3351 32.4838 27.008 31.3984 28.0933C30.3131 29.1787 29.6402 30.6771 29.6402 32.3284V34.5841C29.6402 35.6315 29.2126 36.5828 28.5228 37.2726C27.8331 37.9623 26.8818 38.39 25.8344 38.39H22.3351ZM20.2619 39.4837C20.2619 37.7847 18.8846 36.4075 17.1857 36.4075C15.4867 36.4075 14.1095 37.7848 14.1095 39.4837C14.1095 41.1826 15.4868 42.5599 17.1857 42.5599C18.8846 42.5599 20.2619 41.1826 20.2619 39.4837ZM53.4231 27.4288C53.4231 25.7897 52.345 24.4024 50.8592 23.9374V27.4288C50.8592 27.7189 50.744 27.9971 50.5389 28.2022C50.3338 28.4073 50.0556 28.5226 49.7655 28.5226C49.4754 28.5226 49.1972 28.4073 48.9921 28.2022C48.787 27.9971 48.6717 27.7189 48.6717 27.4288V23.9374L48.6846 23.9335C47.192 24.3945 46.1076 25.785 46.1076 27.4288C46.1076 29.449 47.7452 31.0866 49.7654 31.0866C51.7855 31.0866 53.4231 29.449 53.4231 27.4288ZM56.6576 17.7766C56.875 17.6511 56.9994 17.4356 56.9994 17.1846C56.9994 16.9336 56.875 16.7181 56.6576 16.5926L53.0466 14.5078V19.8614L56.6576 17.7766ZM48.6717 23.9374C49.0257 23.8268 49.3945 23.7707 49.7654 23.771C50.1464 23.771 50.5137 23.8293 50.8591 23.9374V13.2374C50.8591 12.9473 50.7439 12.6691 50.5387 12.464C50.3336 12.2589 50.0554 12.1436 49.7654 12.1436C49.4753 12.1436 49.1971 12.2589 48.992 12.464C48.7868 12.6691 48.6716 12.9473 48.6716 13.2374V23.9374H48.6717Z" fill="white"/>
</svg>
