<svg width="70" height="70" viewBox="0 0 70 70" fill="none" xmlns="http://www.w3.org/2000/svg">
<path fill-rule="evenodd" clip-rule="evenodd" d="M12.5072 67.1977C6.20375 67.1977 1.09375 62.0877 1.09375 55.7843V55.781C1.09553 50.5394 5.34529 46.2907 10.5874 46.2907C11.2904 46.2907 11.9755 46.3671 12.6349 46.5122C13.3159 46.6619 13.9638 46.51 14.5072 46.0732C15.0507 45.6362 15.3382 45.0362 15.3382 44.3388V17.6585H66.6809C67.9066 17.6585 68.9062 18.6582 68.9062 19.8839V64.9722C68.9062 66.1979 67.9066 67.1976 66.6809 67.1976L12.5072 67.1977ZM29.8922 2.80237H61.0407C62.8034 2.80237 64.2411 4.23997 64.241 6.00268V7.28278C64.241 9.04549 62.8034 10.4832 61.0405 10.4831H29.8921L29.8922 2.80237ZM23.02 5.98067L28.525 2.80237V10.4832L23.02 7.30493C22.7769 7.16452 22.6378 6.92348 22.6378 6.6428C22.6378 6.36211 22.7769 6.12108 23.02 5.98067ZM60.5767 40.382C60.3955 40.3823 60.2218 40.4545 60.0937 40.5826C59.9656 40.7107 59.8934 40.8844 59.8931 41.0656V58.3777C59.8931 58.7542 60.2001 59.0613 60.5767 59.0613H62.9442C63.3207 59.0613 63.6278 58.7542 63.6278 58.3777V41.0656C63.6278 40.689 63.3207 40.382 62.9442 40.382H60.5767ZM52.5425 44.8413C52.3613 44.8417 52.1877 44.9138 52.0595 45.042C51.9314 45.1701 51.8593 45.3437 51.8589 45.5249V58.3777C51.8589 58.7542 52.166 59.0613 52.5425 59.0613H54.9101C55.2866 59.0613 55.5937 58.7542 55.5937 58.3777V45.5249C55.5937 45.1484 55.2866 44.8413 54.9101 44.8413H52.5425ZM44.5085 48.7891C44.3273 48.7894 44.1537 48.8616 44.0255 48.9897C43.8974 49.1178 43.8253 49.2915 43.8249 49.4727V58.3777C43.8249 58.7542 44.132 59.0613 44.5085 59.0613H46.8761C47.2526 59.0613 47.5597 58.7542 47.5597 58.3777V49.4727C47.5597 49.0962 47.2526 48.7891 46.8761 48.7891H44.5085ZM28.0171 25.8504C23.4972 26.3909 19.9931 30.2373 19.9931 34.9027C19.9931 39.9383 24.0752 44.0205 29.1108 44.0205C30.3428 44.022 31.5622 43.773 32.6949 43.2886L28.2188 35.5357C28.0872 35.3509 28.0166 35.1296 28.017 34.9027V25.8504H28.0171ZM34.5803 42.1983C36.5204 40.7413 37.8603 38.5282 38.163 35.9966H30.9997L34.5803 42.1983ZM38.163 33.809C37.6655 29.6478 34.3658 26.3479 30.2045 25.8504V33.809H38.163ZM44.453 28.2461H63.6278C63.9179 28.2461 64.1961 28.1309 64.4012 27.9258C64.6063 27.7207 64.7216 27.4425 64.7216 27.1524C64.7216 26.8623 64.6063 26.5841 64.4012 26.379C64.1961 26.1739 63.9179 26.0586 63.6278 26.0586H44.453C44.1629 26.0586 43.8847 26.1739 43.6796 26.379C43.4745 26.5841 43.3593 26.8623 43.3593 27.1524C43.3593 27.4425 43.4745 27.7207 43.6796 27.9258C43.8847 28.1309 44.1629 28.2461 44.453 28.2461ZM44.453 32.7769H54.0404C54.3305 32.7769 54.6087 32.6616 54.8138 32.4565C55.0189 32.2514 55.1342 31.9732 55.1342 31.6831C55.1342 31.393 55.0189 31.1148 54.8138 30.9097C54.6087 30.7046 54.3305 30.5894 54.0404 30.5894H44.453C44.1629 30.5894 43.8847 30.7046 43.6796 30.9097C43.4745 31.1148 43.3593 31.393 43.3593 31.6831C43.3593 31.9732 43.4745 32.2514 43.6796 32.4565C43.8847 32.6616 44.1629 32.7769 44.453 32.7769ZM25.9375 58.8732H38.3004C38.5905 58.8732 38.8687 58.758 39.0738 58.5528C39.2789 58.3477 39.3941 58.0695 39.3941 57.7794C39.3941 57.4894 39.2789 57.2112 39.0738 57.006C38.8687 56.8009 38.5905 56.6857 38.3004 56.6857H25.9375C25.6474 56.6857 25.3692 56.8009 25.1641 57.006C24.9589 57.2112 24.8437 57.4894 24.8437 57.7794C24.8437 58.0695 24.9589 58.3477 25.1641 58.5528C25.3692 58.758 25.6474 58.8732 25.9375 58.8732ZM18.7713 58.8732H22.0638C22.3539 58.8732 22.6321 58.758 22.8372 58.5528C23.0423 58.3477 23.1576 58.0695 23.1576 57.7794C23.1576 57.4894 23.0423 57.2112 22.8372 57.006C22.6321 56.8009 22.3539 56.6857 22.0638 56.6857H18.7713C18.4813 56.6857 18.2031 56.8009 17.9979 57.006C17.7928 57.2112 17.6776 57.4894 17.6776 57.7794C17.6776 58.0695 17.7928 58.3477 17.9979 58.5528C18.2031 58.758 18.4813 58.8732 18.7713 58.8732ZM25.9375 54.1906H38.3004C38.5905 54.1906 38.8687 54.0753 39.0738 53.8702C39.2789 53.6651 39.3941 53.3869 39.3941 53.0968C39.3941 52.8067 39.2789 52.5285 39.0738 52.3234C38.8687 52.1183 38.5905 52.0031 38.3004 52.0031H25.9375C25.6474 52.0031 25.3692 52.1183 25.1641 52.3234C24.9589 52.5285 24.8437 52.8067 24.8437 53.0968C24.8437 53.3869 24.9589 53.6651 25.1641 53.8702C25.3692 54.0753 25.6474 54.1906 25.9375 54.1906ZM18.7713 54.1906H22.0638C22.3539 54.1906 22.6321 54.0753 22.8372 53.8702C23.0423 53.6651 23.1576 53.3869 23.1576 53.0968C23.1576 52.8067 23.0423 52.5285 22.8372 52.3234C22.6321 52.1183 22.3539 52.0031 22.0638 52.0031H18.7713C18.4813 52.0031 18.2031 52.1183 17.9979 52.3234C17.7928 52.5285 17.6776 52.8067 17.6776 53.0968C17.6776 53.3869 17.7928 53.6651 17.9979 53.8702C18.2031 54.0753 18.4813 54.1906 18.7713 54.1906ZM1.09375 48.6625C3.25924 45.781 6.70633 43.917 10.5874 43.917C11.2112 43.917 11.8342 43.9655 12.45 44.0627C12.5832 44.0838 12.7061 44.049 12.8086 43.9615C12.9112 43.874 12.9645 43.758 12.9645 43.6232V9.37649C12.9646 9.07161 12.8474 8.77839 12.6371 8.55765C12.4268 8.33692 12.1396 8.20562 11.8351 8.191C11.4788 8.17377 11.0674 8.16489 10.5874 8.16489C7.10035 8.16502 1.09375 12.4153 1.09375 17.6586V48.6625Z" fill="white"></path>
</svg>
