<svg width="70" height="70" viewBox="0 0 70 70" fill="none" xmlns="http://www.w3.org/2000/svg">
<path fill-rule="evenodd" clip-rule="evenodd" d="M35 7.36316C37.4898 7.36316 39.5082 8.78203 39.5082 12.0543C39.5082 15.3265 37.4898 17.9792 35 17.9792C32.5102 17.9792 30.492 15.3265 30.492 12.0543C30.4918 8.78203 32.5102 7.36316 35 7.36316ZM38.3089 32.5945C38.3089 30.1134 40.3215 28.1007 42.8027 28.1007H46.3962V24.5529C46.3962 22.0163 44.1376 20.5769 41.5674 19.9392C39.7977 19.5002 38.0179 19.2291 36.2276 19.1408L33.7738 19.1355C32.0042 19.2154 30.2241 19.4786 28.4326 19.9392C25.8683 20.5986 23.6038 22.0154 23.6038 24.5529V28.1007H27.1975C29.6785 28.1007 31.6913 30.1133 31.6913 32.5945C31.6923 33.4064 31.4724 34.2034 31.0551 34.9H38.9452C38.5279 34.2034 38.308 33.4064 38.3089 32.5945ZM20.3014 37.0873H49.6986C50.0752 37.0873 50.3822 37.3944 50.3822 37.7709V39.6863C50.3822 40.0629 50.0752 40.3699 49.6986 40.3699H43.3687V62.637H26.6313V40.3699H20.3014C20.1202 40.3696 19.9465 40.2974 19.8184 40.1693C19.6903 40.0412 19.6181 39.8675 19.6178 39.6863V37.7709C19.6178 37.3944 19.9248 37.0873 20.3014 37.0873ZM9.09289 12.5028C11.6128 12.5028 13.6555 14.5455 13.6555 17.0654C13.6555 19.5853 11.6128 21.628 9.09289 21.628C6.57303 21.628 4.53031 19.5853 4.53031 17.0654C4.53031 14.5455 6.57316 12.5028 9.09289 12.5028ZM15.6822 34.8985C15.2413 34.8971 14.8099 34.7697 14.439 34.5314L9.80014 31.5379C8.73045 30.8513 8.41982 29.4275 9.10643 28.3578C9.79303 27.2881 11.2168 26.9775 12.2866 27.6641L16.3532 30.2882H27.1975C28.4711 30.2882 29.5038 31.3208 29.5038 32.5945C29.5038 33.8681 28.4711 34.9008 27.1975 34.9008L15.6822 34.8985ZM12.688 39.5072C12.688 40.0988 12.9311 40.6378 13.3228 41.0295C13.7147 41.4212 14.2535 41.6641 14.8451 41.6641H16.0305C20.325 41.6641 22.754 44.152 24.4439 48.3189V62.635C23.8608 62.6049 23.3736 62.2222 23.2069 61.6553L20.0785 51.0113C19.7225 49.8 19.1049 48.8543 17.9215 48.8543H17.5958C17.5996 49.0002 17.5741 49.1454 17.5208 49.2814C17.4675 49.4173 17.3876 49.5412 17.2857 49.6457C17.1838 49.7503 17.062 49.8334 16.9275 49.8901C16.793 49.9468 16.6485 49.9761 16.5025 49.9761H15.1353V62.2268C15.1353 62.4526 14.951 62.6369 14.7252 62.6369H12.5124C12.2865 62.6369 12.1022 62.4526 12.1022 62.2268V49.9761H6.9542C5.41666 49.9761 4.01953 49.3478 3.00754 48.3357C1.99555 47.3236 1.36719 45.9267 1.36719 44.3892V29.2438C1.36719 28.9537 1.48242 28.6755 1.68754 28.4704C1.89266 28.2652 2.17086 28.15 2.46094 28.15C2.75102 28.15 3.02922 28.2652 3.23434 28.4704C3.43945 28.6755 3.55469 28.9537 3.55469 29.2438V44.3892C3.55469 45.3228 3.9375 46.1726 4.5541 46.7892C5.1707 47.4058 6.02041 47.7886 6.9542 47.7886H10.5148C9.67617 47.3478 8.90896 46.783 8.23908 46.1131C6.54705 44.4209 5.49787 42.0836 5.49787 39.5072V26.7943C5.49787 24.8202 7.10801 23.21 9.08209 23.21C10.5402 23.21 11.8002 24.0673 12.3676 25.3111C10.4914 24.7337 8.37498 25.4475 7.26551 27.1762C5.93168 29.2542 6.54049 32.0379 8.61397 33.376L12.688 36.0048V39.5072ZM60.907 12.5028C58.3872 12.5028 56.3444 14.5455 56.3444 17.0654C56.3444 19.5853 58.3871 21.628 60.907 21.628C63.4268 21.628 65.4696 19.5853 65.4696 17.0654C65.4696 14.5455 63.4268 12.5028 60.907 12.5028ZM54.3178 34.8985L42.8027 34.9006C41.529 34.9006 40.4964 33.868 40.4964 32.5943C40.4964 31.3207 41.529 30.288 42.8027 30.288H53.6469L57.7135 27.664C58.7832 26.9774 60.2071 27.2879 60.8937 28.3577C61.5803 29.4274 61.2697 30.8512 60.2 31.5378L55.5611 34.5312C55.1902 34.7697 54.7588 34.8972 54.3178 34.8985ZM57.312 39.5072V36.0049L61.386 33.3761C63.4596 32.038 64.0683 29.2543 62.7345 27.1763C61.625 25.4478 59.5086 24.7338 57.6324 25.3112C58.1998 24.0675 59.4598 23.2101 60.9179 23.2101C62.892 23.2101 64.5021 24.8202 64.5021 26.7944V39.5074C64.5021 42.0838 63.4529 44.4211 61.7609 46.1132C61.0911 46.7832 60.3239 47.3481 59.4852 47.7887H63.0458C63.9795 47.7887 64.8292 47.4059 65.4459 46.7893C66.0625 46.1727 66.4453 45.323 66.4453 44.3893V29.2438C66.4453 28.9537 66.5605 28.6755 66.7657 28.4704C66.9708 28.2652 67.249 28.15 67.5391 28.15C67.8291 28.15 68.1073 28.2652 68.3125 28.4704C68.5176 28.6755 68.6328 28.9537 68.6328 29.2438V44.3892C68.6328 45.9267 68.0046 47.3239 66.9925 48.3359C65.9805 49.3478 64.5833 49.9762 63.0458 49.9762H57.8978V62.2269C57.8978 62.4528 57.7135 62.637 57.4876 62.637H55.275C55.0491 62.637 54.8648 62.4528 54.8648 62.2269V49.9762H53.4976C53.3516 49.9762 53.2071 49.947 53.0726 49.8902C52.9381 49.8335 52.8163 49.7504 52.7144 49.6459C52.6125 49.5413 52.5326 49.4174 52.4793 49.2815C52.4261 49.1456 52.4006 49.0004 52.4043 48.8544H52.0786C50.8952 48.8544 50.2776 49.8001 49.9216 51.0114L46.7932 61.6554C46.6266 62.2224 46.1393 62.6049 45.5562 62.6351V48.3189C47.2462 44.152 49.675 41.6641 53.9696 41.6641H55.1551C55.7467 41.6641 56.2856 41.421 56.6773 41.0295C57.0689 40.6376 57.312 40.0988 57.312 39.5072Z" fill="white"/>
</svg>
