<svg width="32" height="32" viewBox="0 0 32 32" fill="none" xmlns="http://www.w3.org/2000/svg">
<g clip-path="url(#clip0_1722_85)">
<path fill-rule="evenodd" clip-rule="evenodd" d="M16 17.3332C19.1947 17.3332 22.1 18.2585 24.2373 19.5625C25.304 20.2132 26.216 20.9812 26.8747 21.8158C27.5227 22.6358 28 23.6172 28 24.6665C28 25.7932 27.452 26.6812 26.6627 27.3145C25.916 27.9145 24.9307 28.3118 23.884 28.5892C21.78 29.1452 18.972 29.3332 16 29.3332C13.028 29.3332 10.22 29.1465 8.116 28.5892C7.06933 28.3118 6.084 27.9145 5.33733 27.3145C4.54667 26.6798 4 25.7932 4 24.6665C4 23.6172 4.47733 22.6358 5.12533 21.8145C5.784 20.9812 6.69467 20.2145 7.76267 19.5612C9.9 18.2598 12.8067 17.3332 16 17.3332ZM16 19.9998C13.3027 19.9998 10.876 20.7865 9.152 21.8385C8.28933 22.3638 7.63867 22.9345 7.21867 23.4678C6.78667 24.0145 6.66667 24.4278 6.66667 24.6665C6.66667 24.8292 6.716 25.0012 7.00667 25.2345C7.33867 25.5012 7.916 25.7772 8.79867 26.0105C10.556 26.4772 13.0813 26.6665 16 26.6665C18.92 26.6665 21.444 26.4758 23.2 26.0105C24.084 25.7772 24.6613 25.5012 24.9933 25.2345C25.284 25.0012 25.3333 24.8292 25.3333 24.6665C25.3333 24.4265 25.2133 24.0145 24.7827 23.4678C24.3613 22.9345 23.7107 22.3638 22.848 21.8385C21.124 20.7852 18.6973 19.9998 16 19.9998ZM16 2.6665C17.7681 2.6665 19.4638 3.36888 20.714 4.61913C21.9643 5.86937 22.6667 7.56506 22.6667 9.33317C22.6667 11.1013 21.9643 12.797 20.714 14.0472C19.4638 15.2975 17.7681 15.9998 16 15.9998C14.2319 15.9998 12.5362 15.2975 11.286 14.0472C10.0357 12.797 9.33333 11.1013 9.33333 9.33317C9.33333 7.56506 10.0357 5.86937 11.286 4.61913C12.5362 3.36888 14.2319 2.6665 16 2.6665ZM16 5.33317C15.4747 5.33317 14.9546 5.43663 14.4693 5.63765C13.984 5.83867 13.543 6.13331 13.1716 6.50474C12.8001 6.87618 12.5055 7.31714 12.3045 7.80244C12.1035 8.28774 12 8.80788 12 9.33317C12 9.85846 12.1035 10.3786 12.3045 10.8639C12.5055 11.3492 12.8001 11.7902 13.1716 12.1616C13.543 12.533 13.984 12.8277 14.4693 13.0287C14.9546 13.2297 15.4747 13.3332 16 13.3332C17.0609 13.3332 18.0783 12.9117 18.8284 12.1616C19.5786 11.4115 20 10.394 20 9.33317C20 8.27231 19.5786 7.25489 18.8284 6.50474C18.0783 5.7546 17.0609 5.33317 16 5.33317Z" fill="#FF7019"/>
</g>
<defs>
<clipPath id="clip0_1722_85">
<rect width="32" height="32" fill="white"/>
</clipPath>
</defs>
</svg>
