<svg width="24" height="24" viewBox="0 0 24 24" fill="none" xmlns="http://www.w3.org/2000/svg">
<path d="M16.6233 14.2862C16.2944 14.082 15.8015 14.1383 15.5276 14.413L13.3488 16.5889C13.2167 16.7209 13.0377 16.7951 12.8509 16.7951C12.6642 16.7951 12.4851 16.7209 12.3531 16.5889L7.45821 11.6948C7.32619 11.5627 7.25203 11.3836 7.25203 11.1969C7.25203 11.0102 7.32619 10.8311 7.45821 10.699L9.50953 8.64842C9.78416 8.37379 9.8243 7.89141 9.60107 7.57523L5.86884 2.28462C5.81722 2.20986 5.7507 2.14658 5.67346 2.09874C5.59622 2.05091 5.50993 2.01957 5.42 2.00667C5.33007 1.99378 5.23844 1.99961 5.15087 2.02381C5.06331 2.04801 4.98169 2.09006 4.91114 2.1473C4.91114 2.1473 2 4.45706 2 6.5802C2 15.2664 9.04194 22.3077 17.7268 22.3077C19.8499 22.3077 21.9153 18.4107 21.9153 18.4107C22.0024 18.2413 22.0232 18.0456 21.9737 17.8618C21.9242 17.6779 21.808 17.5191 21.6477 17.4163L16.6233 14.2862Z" fill="black"></path>
</svg>
