<svg width="32" height="32" viewBox="0 0 32 32" fill="none" xmlns="http://www.w3.org/2000/svg">
<path d="M22.1729 18.5214L22.7809 17.9174L21.3689 16.4988L20.7635 17.1028L22.1729 18.5214ZM24.8195 17.6641L27.3675 19.0494L28.3209 17.2921L25.7742 15.9081L24.8195 17.6641ZM27.8569 21.8014L25.9636 23.6854L27.3729 25.1028L29.2662 23.2201L27.8569 21.8014ZM24.8089 24.2908C22.8756 24.4721 17.8755 24.3108 12.4595 18.9268L11.0489 20.3441C16.9582 26.2201 22.5835 26.5081 24.9956 26.2828L24.8089 24.2908ZM12.4595 18.9268C7.29822 13.7934 6.44222 9.47744 6.33555 7.60411L4.33822 7.71744C4.47155 10.0748 5.53155 14.8588 11.0489 20.3441L12.4595 18.9268ZM14.2929 10.6868L14.6755 10.3054L13.2675 8.88811L12.8849 9.26811L14.2929 10.6868ZM14.9795 5.45878L13.2995 3.21344L11.6982 4.41344L13.3782 6.65744L14.9795 5.45878ZM7.64488 2.72411L5.55155 4.80411L6.96222 6.22278L9.05422 4.14278L7.64488 2.72411ZM13.5889 9.97744C12.8822 9.26811 12.8822 9.26811 12.8822 9.27078H12.8795L12.8755 9.27611C12.8126 9.34036 12.7559 9.41045 12.7062 9.48544C12.6342 9.59211 12.5555 9.73211 12.4889 9.90944C12.3265 10.3672 12.2861 10.8593 12.3715 11.3374C12.5502 12.4908 13.3449 14.0148 15.3795 16.0388L16.7902 14.6201C14.8849 12.7268 14.4316 11.5748 14.3475 11.0308C14.3075 10.7721 14.3489 10.6441 14.3609 10.6148C14.3675 10.5961 14.3702 10.5948 14.3609 10.6068C14.3491 10.6253 14.3357 10.6427 14.3209 10.6588L14.3075 10.6721C14.3032 10.6763 14.2988 10.6803 14.2942 10.6841L13.5889 9.97744ZM15.3795 16.0388C17.4156 18.0628 18.9475 18.8521 20.1022 19.0281C20.6929 19.1188 21.1689 19.0468 21.5302 18.9121C21.7323 18.8373 21.9213 18.7311 22.0902 18.5974C22.1132 18.5783 22.1354 18.5582 22.1569 18.5374L22.1662 18.5294L22.1702 18.5254L22.1716 18.5228C22.1716 18.5228 22.1729 18.5214 21.4676 17.8121C20.7609 17.1028 20.7649 17.1014 20.7649 17.1014L20.7675 17.0988L20.7702 17.0961L20.7782 17.0894L20.7915 17.0761C20.8076 17.0617 20.8245 17.0484 20.8422 17.0361C20.8555 17.0268 20.8515 17.0308 20.8329 17.0388C20.7995 17.0508 20.6689 17.0921 20.4062 17.0521C19.8542 16.9668 18.6942 16.5134 16.7902 14.6201L15.3795 16.0388ZM13.2995 3.21211C11.9395 1.39878 9.26755 1.11078 7.64488 2.72411L9.05422 4.14278C9.76355 3.43744 11.0222 3.51078 11.6982 4.41344L13.2995 3.21211ZM6.33688 7.60544C6.31022 7.14411 6.52222 6.66144 6.96222 6.22411L5.55022 4.80544C4.83422 5.51744 4.27022 6.52544 4.33822 7.71744L6.33688 7.60544ZM25.9636 23.6854C25.5982 24.0508 25.2036 24.2561 24.8102 24.2921L24.9956 26.2828C25.9755 26.1908 26.7769 25.6974 27.3742 25.1041L25.9636 23.6854ZM14.6755 10.3054C15.9889 9.00011 16.0862 6.93744 14.9809 5.46011L13.3795 6.65878C13.9169 7.37744 13.8369 8.32011 13.2662 8.88944L14.6755 10.3054ZM27.3689 19.0508C28.4582 19.6428 28.6276 21.0374 27.8582 21.8028L29.2689 23.2201C31.0555 21.4428 30.5049 18.4788 28.3222 17.2934L27.3689 19.0508ZM22.7809 17.9188C23.2929 17.4094 24.1169 17.2841 24.8209 17.6654L25.7755 15.9094C24.3302 15.1228 22.5382 15.3401 21.3702 16.5001L22.7809 17.9188Z" fill="#FF7019"></path>
</svg>
