<svg width="50" height="50" viewBox="0 0 50 50" fill="none" xmlns="http://www.w3.org/2000/svg">
<path d="M24.9993 4.1665C13.4993 4.1665 4.16602 13.4998 4.16602 24.9998C4.16602 36.4998 13.4993 45.8332 24.9993 45.8332C36.4993 45.8332 45.8327 36.4998 45.8327 24.9998C45.8327 13.4998 36.4993 4.1665 24.9993 4.1665ZM34.666 18.3332C34.3535 21.6248 32.9993 29.6248 32.3118 33.3123C32.0202 34.8748 31.4368 35.3957 30.8952 35.4582C29.6868 35.5623 28.7702 34.6665 27.6035 33.8957C25.7702 32.6873 24.7285 31.9373 22.9577 30.7707C20.8952 29.4165 22.2285 28.6665 23.416 27.4582C23.7285 27.1457 29.0618 22.2915 29.166 21.854C29.1805 21.7877 29.1786 21.7189 29.1604 21.6536C29.1423 21.5882 29.1084 21.5283 29.0618 21.479C28.9368 21.3748 28.7702 21.4165 28.6243 21.4373C28.4368 21.479 25.5202 23.4165 19.8327 27.2498C18.9993 27.8123 18.2493 28.104 17.5827 28.0832C16.8327 28.0623 15.416 27.6665 14.3535 27.3123C13.041 26.8957 12.0202 26.6665 12.1035 25.9373C12.1452 25.5623 12.666 25.1873 13.6452 24.7915C19.7285 22.1457 23.7702 20.3957 25.791 19.5623C31.5827 17.1457 32.7702 16.729 33.5618 16.729C33.7285 16.729 34.1243 16.7707 34.3743 16.979C34.5827 17.1457 34.6452 17.3748 34.666 17.5415C34.6452 17.6665 34.6868 18.0415 34.666 18.3332Z" fill="black"/>
</svg>
